<svg width="34" height="32" viewBox="0 0 34 32" fill="none" xmlns="http://www.w3.org/2000/svg">
<g clip-path="url(#clip0_1769_986)">
<path fill-rule="evenodd" clip-rule="evenodd" d="M3.79774 8.34573C3.79774 4.11836 7.16764 0.691406 11.3246 0.691406H16.9698C21.1268 0.691406 24.4967 4.11836 24.4967 8.34573C24.4967 9.34965 25.2049 10.1939 26.0908 10.6663C28.4552 11.9272 30.1418 14.5579 30.1418 17.5309V22.6993C30.1418 23.5947 30.3992 24.4705 30.8823 25.2191L33.2821 28.9379C33.5856 29.4083 33.611 30.01 33.3482 30.5051C33.0854 31.0001 32.5768 31.3087 32.0235 31.3087H16.9698C12.8128 31.3087 9.4429 27.8817 9.4429 23.6544C9.4429 22.8089 8.75751 22.1235 7.91204 22.1235H1.91602C1.3628 22.1235 0.854159 21.8149 0.591353 21.3199C0.328547 20.8248 0.353929 20.2231 0.657456 19.7527L3.05731 16.0339C3.54038 15.2853 3.79774 14.4095 3.79774 13.5141V8.34573ZM13.9845 22.1235C13.139 22.1235 12.4537 22.8089 12.4537 23.6544C12.4537 26.1908 14.4756 28.247 16.9698 28.247H27.6307C28.3229 28.247 28.7405 27.4806 28.3651 26.8989C27.56 25.6513 27.1311 24.1916 27.1311 22.6993V17.5309C27.1311 16.0455 26.4518 14.7588 25.486 13.9284C25.0678 13.5688 24.4967 13.9177 24.4967 14.4692C24.4967 18.6966 21.1268 22.1235 16.9698 22.1235H13.9845ZM6.3089 19.0618C5.61665 19.0618 5.1991 18.2954 5.57445 17.7137C6.37956 16.4661 6.8085 15.0064 6.8085 13.5141V8.34573C6.8085 5.80931 8.83044 3.75313 11.3246 3.75313H16.9698C19.464 3.75313 21.4859 5.80931 21.4859 8.34573V14.4692C21.4859 17.0056 19.464 19.0618 16.9698 19.0618H6.3089Z" fill="#4F4F4F"/>
</g>
<defs>
<clipPath id="clip0_1769_986">
<rect width="33.9394" height="32" fill="white"/>
</clipPath>
</defs>
</svg>
