<svg width="34" height="32" viewBox="0 0 34 32" fill="none" xmlns="http://www.w3.org/2000/svg">
<g clip-path="url(#clip0_1934_2539)">
<path fill-rule="evenodd" clip-rule="evenodd" d="M3.79762 8.34573C3.79762 4.11836 7.16752 0.691406 11.3245 0.691406H16.9697C21.1266 0.691406 24.4965 4.11836 24.4965 8.34573V8.34573C24.4965 9.34965 25.2048 10.1939 26.0907 10.6663C28.4551 11.9272 30.1417 14.5579 30.1417 17.5309V22.6993C30.1417 23.5947 30.3991 24.4705 30.8821 25.2191L33.282 28.9379C33.5855 29.4083 33.6109 30.01 33.3481 30.5051C33.0853 31.0001 32.5766 31.3087 32.0234 31.3087H16.9697C12.8127 31.3087 9.44278 27.8817 9.44278 23.6544V23.6544C9.44278 22.8089 8.75739 22.1235 7.91192 22.1235H1.9159C1.36268 22.1235 0.854037 21.8149 0.591231 21.3199C0.328424 20.8248 0.353807 20.2231 0.657334 19.7527L3.05719 16.0339C3.54026 15.2853 3.79762 14.4095 3.79762 13.5141V8.34573ZM13.9844 22.1235C13.1389 22.1235 12.4535 22.8089 12.4535 23.6544V23.6544C12.4535 26.1908 14.4755 28.247 16.9697 28.247H27.6305C28.3228 28.247 28.7404 27.4806 28.365 26.8989V26.8989C27.5599 25.6513 27.131 24.1916 27.131 22.6993V17.5309C27.131 16.0455 26.4517 14.7588 25.4858 13.9284C25.0677 13.5688 24.4965 13.9177 24.4965 14.4692V14.4692C24.4965 18.6965 21.1266 22.1235 16.9697 22.1235H13.9844ZM6.30878 19.0618C5.61653 19.0618 5.19897 18.2954 5.57433 17.7137V17.7137C6.37944 16.4661 6.80837 15.0064 6.80837 13.5141V8.34573C6.80837 5.80931 8.83031 3.75313 11.3245 3.75313H16.9697C19.4639 3.75313 21.4858 5.80931 21.4858 8.34573V14.4692C21.4858 17.0056 19.4639 19.0618 16.9697 19.0618H6.30878Z" fill="white"/>
</g>
<defs>
<clipPath id="clip0_1934_2539">
<rect width="33.9394" height="32" fill="white"/>
</clipPath>
</defs>
</svg>
