<svg width="38" height="38" viewBox="0 0 38 38" fill="none" xmlns="http://www.w3.org/2000/svg">
<circle cx="19" cy="19" r="19" transform="rotate(-90 19 19)" fill="#FF764A"/>
<path fill-rule="evenodd" clip-rule="evenodd" d="M20.499 12.0332C20.499 11.2048 19.8274 10.5332 18.999 10.5332C18.1706 10.5332 17.499 11.2048 17.499 12.0332L17.499 16.7264H12.0332C11.2048 16.7264 10.5332 17.398 10.5332 18.2264C10.5332 19.0549 11.2048 19.7264 12.0332 19.7264H17.499L17.499 25.9668C17.499 26.7953 18.1706 27.4668 18.999 27.4668C19.8274 27.4668 20.499 26.7953 20.499 25.9668V19.7264H25.9668C26.7953 19.7264 27.4668 19.0549 27.4668 18.2264C27.4668 17.398 26.7953 16.7264 25.9668 16.7264H20.499V12.0332Z" fill="white"/>
</svg>
