<svg width="130" height="130" viewBox="0 0 130 130" fill="none" xmlns="http://www.w3.org/2000/svg">
<path id="Ellipse 11" d="M65 -2.84124e-06C100.899 -4.41041e-06 130 29.1015 130 65C130 100.899 100.899 130 65 130C29.1015 130 -1.27207e-06 100.899 -2.84124e-06 65C-4.41041e-06 29.1015 29.1015 -1.27207e-06 65 -2.84124e-06ZM65 118.865C94.7486 118.865 118.865 94.7486 118.865 65C118.865 35.2514 94.7486 11.1354 65 11.1354C35.2514 11.1354 11.1354 35.2514 11.1354 65C11.1354 94.7486 35.2514 118.865 65 118.865Z" fill="#EBEBEB"/>
</svg>
