<svg width="32" height="29" viewBox="0 0 32 29" fill="none" xmlns="http://www.w3.org/2000/svg">
<g clip-path="url(#clip0_1769_978)">
<path fill-rule="evenodd" clip-rule="evenodd" d="M17.1789 0.437245C16.6116 -0.0103316 15.8174 -0.0103316 15.25 0.437245L1.11192 11.5919C0.427102 12.1323 0.303724 13.1335 0.836369 13.8281C1.36901 14.5229 2.35598 14.648 3.04082 14.1078L3.64729 13.6292V27.1917C3.64729 28.0718 4.35062 28.7852 5.2182 28.7852H13.0727C13.9403 28.7852 14.0909 28.0718 14.0909 27.1917V20.8725L18.5091 20.8175V27.1917C18.5091 28.0718 18.4887 28.7852 19.3563 28.7852H27.2108C28.0784 28.7852 28.3273 28.0718 28.3273 27.1917V13.4543L29.3881 14.1078C30.073 14.648 31.06 14.5229 31.5925 13.8281C32.1252 13.1335 32.0019 12.1323 31.317 11.5919L17.1789 0.437245ZM25.6432 11.153L16.2145 3.71389L6.3963 10.9816C6.39845 11.0157 6.39955 11.0502 6.39955 11.0849V26.3125H11.5018V19.224C11.5018 18.3439 12.2051 17.6305 13.0727 17.6305H19.3563C20.2239 17.6305 20.9272 18.3439 20.9272 19.224V25.5981H25.6371V11.4761C25.6371 11.4414 25.641 11.1871 25.6432 11.153Z" fill="#4F4F4F"/>
</g>
<defs>
<clipPath id="clip0_1769_978">
<rect width="32" height="28.8" fill="white"/>
</clipPath>
</defs>
</svg>
