<svg width="32" height="32" viewBox="0 0 32 32" fill="none" xmlns="http://www.w3.org/2000/svg">
<path fill-rule="evenodd" clip-rule="evenodd" d="M16 29.7674C16.6162 29.7674 17.1163 30.2675 17.1163 30.8837C17.1163 31.4999 16.6162 32 16 32H4.09302C3.008 32 1.96614 31.5684 1.19814 30.8019C0.431628 30.0339 0 28.992 0 27.907V4.09302C0 3.008 0.431628 1.96614 1.19814 1.19814C1.96614 0.431628 3.008 0 4.09302 0H16.8722C17.5628 0 18.2251 0.27386 18.7133 0.763535L25.283 7.33321C25.7726 7.8214 26.0465 8.48372 26.0465 9.17433V14.5116C26.0465 15.1278 25.5464 15.6279 24.9302 15.6279C24.314 15.6279 23.814 15.1278 23.814 14.5116V9.17433C23.814 9.07609 23.7753 8.98084 23.7053 8.91088L17.1356 2.34121C17.0657 2.27126 16.9704 2.23256 16.8722 2.23256H4.09302C3.59888 2.23256 3.12707 2.42902 2.7773 2.7773C2.42902 3.12707 2.23256 3.59888 2.23256 4.09302V27.907C2.23256 28.4011 2.42902 28.8729 2.7773 29.2227C3.12707 29.571 3.59888 29.7674 4.09302 29.7674H16Z" fill="#4F4F4F"/>
<path fill-rule="evenodd" clip-rule="evenodd" d="M16.3721 1.86042C16.3721 1.24423 16.8722 0.744141 17.4883 0.744141C18.1045 0.744141 18.6046 1.24423 18.6046 1.86042V7.06972C18.6046 7.27512 18.7713 7.44181 18.9767 7.44181H24.186C24.8022 7.44181 25.3023 7.94191 25.3023 8.55809C25.3023 9.17428 24.8022 9.67437 24.186 9.67437H18.9767C17.5375 9.67437 16.3721 8.50898 16.3721 7.06972V1.86042Z" fill="#4F4F4F"/>
<path fill-rule="evenodd" clip-rule="evenodd" d="M7.06965 14.8839C6.45346 14.8839 5.95337 14.3838 5.95337 13.7676C5.95337 13.1515 6.45346 12.6514 7.06965 12.6514H18.9766C19.5928 12.6514 20.0929 13.1515 20.0929 13.7676C20.0929 14.3838 19.5928 14.8839 18.9766 14.8839H7.06965Z" fill="#4F4F4F"/>
<path fill-rule="evenodd" clip-rule="evenodd" d="M7.06965 20.0929C6.45346 20.0929 5.95337 19.5928 5.95337 18.9766C5.95337 18.3604 6.45346 17.8604 7.06965 17.8604H13.7673C14.3835 17.8604 14.8836 18.3604 14.8836 18.9766C14.8836 19.5928 14.3835 20.0929 13.7673 20.0929H7.06965Z" fill="#4F4F4F"/>
<path fill-rule="evenodd" clip-rule="evenodd" d="M7.06965 25.3019C6.45346 25.3019 5.95337 24.8018 5.95337 24.1856C5.95337 23.5694 6.45346 23.0693 7.06965 23.0693H13.7673C14.3835 23.0693 14.8836 23.5694 14.8836 24.1856C14.8836 24.8018 14.3835 25.3019 13.7673 25.3019H7.06965Z" fill="#4F4F4F"/>
<path d="M24.7233 26.6048C25.9563 26.6048 26.9558 25.6052 26.9558 24.3722C26.9558 23.1392 25.9563 22.1396 24.7233 22.1396C23.4903 22.1396 22.4907 23.1392 22.4907 24.3722C22.4907 25.6052 23.4903 26.6048 24.7233 26.6048Z" fill="#4F4F4F"/>
<path fill-rule="evenodd" clip-rule="evenodd" d="M27.0079 17.5538C27.0079 17.5538 27.5363 18.8264 27.5348 18.8264C27.7357 18.9276 27.9307 19.0407 28.1197 19.1627L29.4861 18.9841C29.8552 18.9365 30.2258 19.0764 30.4714 19.3577C31.1203 20.1019 31.6189 20.9667 31.9404 21.9014C32.0609 22.2541 31.9969 22.6455 31.7692 22.9417C31.7692 22.9417 30.9328 24.0357 30.9328 24.0342C30.9447 24.2589 30.9447 24.4852 30.9328 24.7084L31.7692 25.8024C31.9969 26.0986 32.0609 26.49 31.9404 26.8427C31.6189 27.7774 31.1203 28.6422 30.4714 29.3864C30.2258 29.6677 29.8552 29.8076 29.4861 29.76C29.4861 29.76 28.1197 29.5814 28.1212 29.5799C27.9322 29.7034 27.7357 29.8165 27.5363 29.9177L27.0079 31.1903C26.865 31.5356 26.5584 31.7856 26.1923 31.8571C25.2219 32.0476 24.2247 32.0476 23.2542 31.8571C22.8881 31.7856 22.5815 31.5356 22.4386 31.1903C22.4386 31.1903 21.9102 29.9177 21.9117 29.9177C21.7108 29.8165 21.5143 29.7034 21.3268 29.5814L19.9605 29.76C19.5899 29.8076 19.2208 29.6677 18.9752 29.3864C18.3248 28.6422 17.8262 27.7774 17.5062 26.8427C17.3856 26.49 17.4496 26.0986 17.6758 25.8024C17.6758 25.8024 18.5138 24.7084 18.5138 24.7099C18.5019 24.4852 18.5019 24.2589 18.5138 24.0357L17.6758 22.9417C17.4496 22.6455 17.3856 22.2541 17.5062 21.9014C17.8262 20.9667 18.3248 20.1019 18.9752 19.3577C19.2208 19.0764 19.5899 18.9365 19.9605 18.9841C19.9605 18.9841 21.3268 19.1627 21.3253 19.1642C21.5143 19.0407 21.7093 18.9276 21.9102 18.8264L22.4386 17.5538C22.5815 17.2085 22.8881 16.9585 23.2542 16.887C24.2247 16.6965 25.2219 16.6965 26.1923 16.887C26.5584 16.9585 26.865 17.2085 27.0079 17.5538ZM25.1891 18.9975C24.8795 18.9707 24.567 18.9693 24.2574 18.9975L23.8049 20.0855C23.6918 20.3579 23.4745 20.5752 23.2007 20.6883C22.8762 20.8223 22.5726 20.9979 22.2942 21.2122C22.0606 21.3923 21.7629 21.4712 21.4697 21.434L20.3013 21.2807C20.1227 21.5367 19.9664 21.8061 19.8355 22.0889L20.5514 23.0236C20.7315 23.2587 20.8103 23.5564 20.7716 23.8496C20.7255 24.1964 20.7255 24.5477 20.7716 24.8945C20.8103 25.1877 20.7315 25.4854 20.5514 25.7205C20.5514 25.7205 19.8355 26.6552 19.8355 26.6567C19.9664 26.938 20.1227 27.2089 20.3013 27.4634L21.4697 27.3101C21.7629 27.2729 22.0606 27.3518 22.2942 27.5319C22.5726 27.7462 22.8762 27.9218 23.2007 28.0558C23.4745 28.1689 23.6918 28.3862 23.8049 28.6586L24.2574 29.7466C24.567 29.7748 24.8795 29.7748 25.1891 29.7466L25.6416 28.6586C25.7547 28.3862 25.972 28.1689 26.2459 28.0558C26.5689 27.9218 26.874 27.7462 27.1523 27.5319C27.386 27.3518 27.6836 27.2729 27.9769 27.3101L29.1452 27.4634C29.3238 27.2074 29.4801 26.938 29.6111 26.6552L28.8952 25.7205C28.7151 25.4854 28.6362 25.1877 28.6749 24.8945C28.7196 24.5477 28.7196 24.1964 28.6749 23.8496C28.6362 23.5564 28.7151 23.2587 28.8952 23.0236C28.8952 23.0236 29.6111 22.0889 29.6111 22.0874C29.4786 21.8061 29.3238 21.5352 29.1452 21.2807L27.9769 21.434C27.6836 21.4712 27.386 21.3923 27.1523 21.2122C26.874 20.9979 26.5689 20.8223 26.2459 20.6883C25.972 20.5752 25.7547 20.3579 25.6416 20.0855L25.1891 18.9975Z" fill="#4F4F4F"/>
</svg>
