<svg width="32" height="32" viewBox="0 0 32 32" fill="none" xmlns="http://www.w3.org/2000/svg">
<path fill-rule="evenodd" clip-rule="evenodd" d="M16 29.7674C16.6162 29.7674 17.1163 30.2675 17.1163 30.8837C17.1163 31.4999 16.6162 32 16 32H4.09302C3.008 32 1.96614 31.5684 1.19814 30.8019C0.431628 30.0339 0 28.992 0 27.907V4.09302C0 3.008 0.431628 1.96614 1.19814 1.19814C1.96614 0.431628 3.008 0 4.09302 0H16.8722C17.5628 0 18.2251 0.27386 18.7133 0.763535L25.283 7.33321C25.7727 7.8214 26.0465 8.48372 26.0465 9.17433V14.5116C26.0465 15.1278 25.5464 15.6279 24.9302 15.6279C24.314 15.6279 23.814 15.1278 23.814 14.5116V9.17433C23.814 9.07609 23.7753 8.98084 23.7053 8.91088L17.1356 2.34121C17.0657 2.27126 16.9704 2.23256 16.8722 2.23256H4.09302C3.59888 2.23256 3.12707 2.42902 2.7773 2.7773C2.42902 3.12707 2.23256 3.59888 2.23256 4.09302V27.907C2.23256 28.4011 2.42902 28.8729 2.7773 29.2227C3.12707 29.571 3.59888 29.7674 4.09302 29.7674H16Z" fill="white"/>
<path fill-rule="evenodd" clip-rule="evenodd" d="M16.3721 1.86042C16.3721 1.24423 16.8722 0.744141 17.4883 0.744141C18.1045 0.744141 18.6046 1.24423 18.6046 1.86042V7.06972C18.6046 7.27512 18.7713 7.44181 18.9767 7.44181H24.186C24.8022 7.44181 25.3023 7.94191 25.3023 8.55809C25.3023 9.17428 24.8022 9.67437 24.186 9.67437H18.9767C17.5375 9.67437 16.3721 8.50898 16.3721 7.06972V1.86042Z" fill="white"/>
<path fill-rule="evenodd" clip-rule="evenodd" d="M7.06977 14.8839C6.45358 14.8839 5.95349 14.3838 5.95349 13.7676C5.95349 13.1515 6.45358 12.6514 7.06977 12.6514H18.9767C19.5929 12.6514 20.093 13.1515 20.093 13.7676C20.093 14.3838 19.5929 14.8839 18.9767 14.8839H7.06977Z" fill="white"/>
<path fill-rule="evenodd" clip-rule="evenodd" d="M7.06977 20.0929C6.45358 20.0929 5.95349 19.5928 5.95349 18.9766C5.95349 18.3604 6.45358 17.8604 7.06977 17.8604H13.7674C14.3836 17.8604 14.8837 18.3604 14.8837 18.9766C14.8837 19.5928 14.3836 20.0929 13.7674 20.0929H7.06977Z" fill="white"/>
<path fill-rule="evenodd" clip-rule="evenodd" d="M7.06977 25.3019C6.45358 25.3019 5.95349 24.8018 5.95349 24.1856C5.95349 23.5694 6.45358 23.0693 7.06977 23.0693H13.7674C14.3836 23.0693 14.8837 23.5694 14.8837 24.1856C14.8837 24.8018 14.3836 25.3019 13.7674 25.3019H7.06977Z" fill="white"/>
<path d="M24.7233 26.6048C25.9563 26.6048 26.9558 25.6052 26.9558 24.3722C26.9558 23.1392 25.9563 22.1396 24.7233 22.1396C23.4903 22.1396 22.4907 23.1392 22.4907 24.3722C22.4907 25.6052 23.4903 26.6048 24.7233 26.6048Z" fill="white"/>
<path fill-rule="evenodd" clip-rule="evenodd" d="M27.008 17.5538C27.008 17.5538 27.5364 18.8264 27.5349 18.8264C27.7359 18.9276 27.9308 19.0407 28.1199 19.1627L29.4862 18.9841C29.8553 18.9365 30.2259 19.0764 30.4715 19.3577C31.1204 20.1019 31.619 20.9667 31.9405 21.9014C32.0611 22.2541 31.9971 22.6455 31.7693 22.9417C31.7693 22.9417 30.9329 24.0357 30.9329 24.0342C30.9448 24.2589 30.9448 24.4852 30.9329 24.7084L31.7693 25.8024C31.9971 26.0986 32.0611 26.49 31.9405 26.8427C31.619 27.7774 31.1204 28.6422 30.4715 29.3864C30.2259 29.6677 29.8553 29.8076 29.4862 29.76C29.4862 29.76 28.1199 29.5814 28.1213 29.5799C27.9323 29.7034 27.7359 29.8165 27.5364 29.9177L27.008 31.1903C26.8652 31.5356 26.5586 31.7856 26.1924 31.8571C25.222 32.0476 24.2248 32.0476 23.2544 31.8571C22.8882 31.7856 22.5816 31.5356 22.4387 31.1903C22.4387 31.1903 21.9104 29.9177 21.9119 29.9177C21.7109 29.8165 21.5145 29.7034 21.3269 29.5813L19.9606 29.76C19.59 29.8076 19.2209 29.6677 18.9753 29.3864C18.3249 28.6422 17.8263 27.7774 17.5063 26.8427C17.3857 26.49 17.4497 26.0986 17.676 25.8024C17.676 25.8024 18.5139 24.7084 18.5139 24.7099C18.502 24.4852 18.502 24.2589 18.5139 24.0357L17.676 22.9417C17.4497 22.6455 17.3857 22.2541 17.5063 21.9014C17.8263 20.9667 18.3249 20.1019 18.9753 19.3577C19.2209 19.0764 19.59 18.9365 19.9606 18.9841C19.9606 18.9841 21.3269 19.1627 21.3254 19.1642C21.5145 19.0407 21.7094 18.9276 21.9104 18.8264L22.4387 17.5538C22.5816 17.2085 22.8882 16.9585 23.2544 16.887C24.2248 16.6965 25.222 16.6965 26.1924 16.887C26.5586 16.9585 26.8652 17.2085 27.008 17.5538ZM25.1893 18.9975C24.8797 18.9707 24.5671 18.9693 24.2575 18.9975L23.8051 20.0855C23.6919 20.3579 23.4746 20.5752 23.2008 20.6883C22.8763 20.8223 22.5727 20.9979 22.2944 21.2122C22.0607 21.3923 21.763 21.4712 21.4698 21.434L20.3014 21.2807C20.1228 21.5367 19.9666 21.8061 19.8356 22.0889L20.5515 23.0236C20.7316 23.2587 20.8105 23.5564 20.7718 23.8496C20.7256 24.1964 20.7256 24.5477 20.7718 24.8945C20.8105 25.1877 20.7316 25.4854 20.5515 25.7205C20.5515 25.7205 19.8356 26.6552 19.8356 26.6567C19.9666 26.938 20.1228 27.2089 20.3014 27.4634L21.4698 27.3101C21.763 27.2729 22.0607 27.3518 22.2944 27.5319C22.5727 27.7462 22.8763 27.9218 23.2008 28.0558C23.4746 28.1689 23.6919 28.3862 23.8051 28.6586L24.2575 29.7466C24.5671 29.7748 24.8797 29.7748 25.1893 29.7466L25.6417 28.6586C25.7548 28.3862 25.9721 28.1689 26.246 28.0558C26.569 27.9218 26.8741 27.7462 27.1524 27.5319C27.3861 27.3518 27.6838 27.2729 27.977 27.3101L29.1453 27.4634C29.324 27.2074 29.4802 26.938 29.6112 26.6552L28.8953 25.7205C28.7152 25.4854 28.6363 25.1877 28.675 24.8945C28.7197 24.5477 28.7197 24.1964 28.675 23.8496C28.6363 23.5564 28.7152 23.2587 28.8953 23.0236C28.8953 23.0236 29.6112 22.0889 29.6112 22.0874C29.4787 21.8061 29.324 21.5352 29.1453 21.2807L27.977 21.434C27.6838 21.4712 27.3861 21.3923 27.1524 21.2122C26.8741 20.9979 26.569 20.8223 26.246 20.6883C25.9721 20.5752 25.7548 20.3579 25.6417 20.0855L25.1893 18.9975Z" fill="white"/>
</svg>
