<svg width="38" height="38" viewBox="0 0 38 38" fill="none" xmlns="http://www.w3.org/2000/svg">
<circle cx="19" cy="19" r="19" transform="rotate(-90 19 19)" fill="#FF764A"/>
<path d="M23.294 17.5736C23.4155 16.2248 22.9933 14.9143 22.1186 13.8796C21.1445 12.7302 19.7153 12.0722 18.2004 12.0722C17.0003 12.0722 15.8357 12.4926 14.9142 13.2544C12.7566 15.0482 12.4724 18.2452 14.2853 20.383C15.2591 21.5323 16.6885 22.1904 18.2061 22.1904C19.4036 22.1904 20.5706 21.7699 21.4894 21.0082C22.5352 20.1371 23.1754 18.9195 23.294 17.5736ZM27.2895 25.1008C27.5929 25.461 27.7419 25.9198 27.7004 26.3894C27.6591 26.8589 27.4301 27.2849 27.0685 27.5878C26.7487 27.8526 26.3402 28 25.9236 28C25.3938 28 24.8943 27.7707 24.555 27.3694L21.3213 23.5581C20.3556 24.0167 19.282 24.2599 18.2031 24.2599C16.0677 24.2599 14.0506 23.3315 12.682 21.7152C10.1297 18.7011 10.5272 14.1963 13.5677 11.6709C14.8646 10.5924 16.5091 10 18.1978 10C20.3362 10 22.3503 10.931 23.7216 12.5473C25.8268 15.0316 25.9538 18.671 24.0528 21.2865L27.2895 25.1008Z" fill="white"/>
</svg>
