<svg width="29" height="32" viewBox="0 0 29 32" fill="none" xmlns="http://www.w3.org/2000/svg">
<path d="M24.447 3.61251H23.3812C23.3783 2.70987 22.9763 1.84495 22.2631 1.20669C21.55 0.568426 20.5835 0.208688 19.575 0.206055H9.42495C8.41638 0.208688 7.44995 0.568426 6.73678 1.20669C6.0236 1.84495 5.62164 2.70987 5.6187 3.61251H4.55295C3.49032 3.61451 2.47185 3.99318 1.72045 4.66566C0.969057 5.33813 0.545937 6.24962 0.543701 7.20063V28.4115C0.545954 29.3625 0.969079 30.274 1.72047 30.9464C2.47186 31.6189 3.49032 31.9976 4.55295 31.9996H24.447C25.5096 31.9976 26.528 31.6189 27.2794 30.9464C28.0308 30.274 28.454 29.3625 28.4562 28.4115V7.20063C28.454 6.24962 28.0308 5.33813 27.2795 4.66566C26.5281 3.99318 25.5096 3.61451 24.447 3.61251ZM9.42495 2.47702H19.575C19.9111 2.47792 20.2333 2.59784 20.471 2.81059C20.7087 3.02334 20.8427 3.31163 20.8437 3.61251V5.88347C20.8427 6.18435 20.7087 6.47264 20.471 6.68539C20.2333 6.89814 19.9111 7.01806 19.575 7.01896H9.42495C9.08877 7.01806 8.76664 6.89814 8.52892 6.68539C8.2912 6.47264 8.15721 6.18435 8.1562 5.88347V3.61251C8.15721 3.31163 8.2912 3.02334 8.52892 2.81059C8.76664 2.59784 9.08877 2.47792 9.42495 2.47702ZM25.9187 28.4115C25.9184 28.7607 25.7633 29.0956 25.4873 29.3426C25.2114 29.5895 24.8372 29.7284 24.447 29.7286H4.55295C4.16271 29.7284 3.78853 29.5895 3.51259 29.3426C3.23664 29.0956 3.08149 28.7607 3.0812 28.4115V7.20063C3.08147 6.85138 3.23662 6.51649 3.51257 6.26953C3.78852 6.02257 4.1627 5.88372 4.55295 5.88347H5.6187C5.62166 6.78611 6.02362 7.65102 6.73679 8.28928C7.44996 8.92754 8.41638 9.28728 9.42495 9.28993H19.575C20.5835 9.28728 21.5499 8.92754 22.2631 8.28928C22.9763 7.65102 23.3782 6.78611 23.3812 5.88347H24.447C24.8372 5.88372 25.2114 6.02257 25.4873 6.26953C25.7633 6.51649 25.9184 6.85138 25.9187 7.20063V28.4115Z" fill="#4F4F4F"/>
<path d="M22.1125 13.832H17.0375C16.7011 13.832 16.3783 13.9517 16.1404 14.1646C15.9025 14.3776 15.7688 14.6664 15.7688 14.9675C15.7688 15.2687 15.9025 15.5575 16.1404 15.7704C16.3783 15.9834 16.7011 16.103 17.0375 16.103H22.1125C22.449 16.103 22.7718 15.9834 23.0097 15.7704C23.2476 15.5575 23.3813 15.2687 23.3813 14.9675C23.3813 14.6664 23.2476 14.3776 23.0097 14.1646C22.7718 13.9517 22.449 13.832 22.1125 13.832Z" fill="#4F4F4F"/>
<path d="M22.1125 22.916H17.0375C16.7011 22.916 16.3783 23.0356 16.1404 23.2486C15.9025 23.4615 15.7688 23.7504 15.7688 24.0515C15.7688 24.3526 15.9025 24.6415 16.1404 24.8544C16.3783 25.0674 16.7011 25.187 17.0375 25.187H22.1125C22.449 25.187 22.7718 25.0674 23.0097 24.8544C23.2476 24.6415 23.3813 24.3526 23.3813 24.0515C23.3813 23.7504 23.2476 23.4615 23.0097 23.2486C22.7718 23.0356 22.449 22.916 22.1125 22.916Z" fill="#4F4F4F"/>
<path d="M11.0655 11.8939L8.15623 14.4975L7.78448 14.1648C7.54606 13.9541 7.22417 13.8364 6.8891 13.8373C6.55403 13.8383 6.23299 13.9578 5.99606 14.1699C5.75913 14.3819 5.62557 14.6693 5.62452 14.9692C5.62347 15.269 5.75503 15.5571 5.99047 15.7705L7.25922 16.906C7.377 17.0114 7.51684 17.0951 7.67076 17.1522C7.82468 17.2092 7.98966 17.2386 8.15626 17.2386C8.32287 17.2386 8.48785 17.2092 8.64177 17.1522C8.79569 17.0951 8.93553 17.0114 9.05331 16.906L12.8596 13.4995C13.095 13.2861 13.2265 12.998 13.2255 12.6982C13.2244 12.3983 13.0908 12.111 12.8539 11.8989C12.617 11.6869 12.2959 11.5673 11.9608 11.5664C11.6258 11.5655 11.3039 11.6832 11.0655 11.8939Z" fill="#4F4F4F"/>
<path d="M11.0655 20.9779L8.15623 23.5815L7.78448 23.2488C7.54606 23.0381 7.22417 22.9204 6.8891 22.9213C6.55403 22.9223 6.23299 23.0418 5.99606 23.2539C5.75913 23.4659 5.62557 23.7533 5.62452 24.0531C5.62347 24.353 5.75503 24.6411 5.99047 24.8545L7.25922 25.9899C7.377 26.0954 7.51684 26.1791 7.67076 26.2361C7.82468 26.2932 7.98966 26.3226 8.15626 26.3226C8.32287 26.3226 8.48785 26.2932 8.64177 26.2361C8.79569 26.1791 8.93553 26.0954 9.05331 25.9899L12.8596 22.5835C13.095 22.3701 13.2265 22.082 13.2255 21.7822C13.2244 21.4823 13.0908 21.195 12.8539 20.9829C12.617 20.7709 12.2959 20.6513 11.9608 20.6504C11.6258 20.6495 11.3039 20.7672 11.0655 20.9779Z" fill="#4F4F4F"/>
</svg>
