<svg width="38" height="32" viewBox="0 0 38 32" fill="none" xmlns="http://www.w3.org/2000/svg">
<g clip-path="url(#clip0_1934_2559)">
<path fill-rule="evenodd" clip-rule="evenodd" d="M5.79712 31.6681C4.22784 31.3814 2.84544 30.9116 1.8752 30.2857C0.651515 29.4972 0 28.4489 0 27.2521C0 23.3008 2.37952 19.8998 5.78304 18.4061C4.30208 17.2515 3.35104 15.4518 3.35104 13.432C3.35104 9.95165 6.176 7.12668 9.65632 7.12668C9.78176 7.12668 9.9072 7.13053 10.0301 7.13693C10.7494 3.43645 14.0109 0.639648 17.92 0.639648C21.8317 0.639648 25.0944 3.44029 25.8112 7.14461C25.9712 7.13309 26.1325 7.12668 26.2963 7.12668C29.7766 7.12668 32.6016 9.95165 32.6016 13.432C32.6016 15.4518 31.6493 17.2515 30.1696 18.4061C33.5731 19.8998 35.9526 23.3008 35.9526 27.2521C35.9526 28.4489 35.3011 29.4972 34.0762 30.2857C33.0778 30.9308 31.6416 31.4096 30.0134 31.6937C29.7907 31.8844 29.5002 31.9996 29.184 31.9996H6.656C6.32576 31.9996 6.02496 31.8742 5.79712 31.6681ZM6.89408 20.7139C4.34816 21.7916 2.56 24.3158 2.56 27.2521C2.56 27.4902 2.70464 27.6784 2.89664 27.8563C3.12832 28.07 3.4304 28.2531 3.77856 28.4182C4.24448 28.6384 4.78592 28.8214 5.376 28.9686V26.6966C5.376 24.5308 5.9264 22.4931 6.89408 20.7139ZM9.94688 9.69693C9.85088 9.69053 9.7536 9.68668 9.65632 9.68668C7.58912 9.68668 5.91104 11.3648 5.91104 13.432C5.91104 15.4992 7.58912 17.1772 9.65632 17.1772C9.68832 17.1772 9.71903 17.1785 9.75103 17.1811C10.7469 16.3261 11.8771 15.6233 13.1072 15.1113C11.4074 13.8377 10.2285 11.9075 9.94688 9.69693ZM25.8918 9.70846C25.6077 11.9126 24.4301 13.8403 22.7328 15.1113C23.968 15.6259 25.1034 16.3312 26.1018 17.1926C26.1658 17.1824 26.2298 17.1772 26.2963 17.1772C28.3635 17.1772 30.0416 15.4992 30.0416 13.432C30.0416 11.3648 28.3635 9.68668 26.2963 9.68668C26.1594 9.68668 26.0237 9.6931 25.8918 9.70846ZM17.92 14.1539C20.9434 14.1539 23.3971 11.6989 23.3971 8.67678C23.3971 5.65342 20.9434 3.19965 17.92 3.19965C14.8966 3.19965 12.4429 5.65342 12.4429 8.67678C12.4429 11.6989 14.8966 14.1539 17.92 14.1539ZM30.464 28.9955C31.0989 28.8444 31.6787 28.6524 32.1741 28.4182C32.5222 28.2531 32.8243 28.07 33.056 27.8563C33.2467 27.6784 33.3926 27.4902 33.3926 27.2521C33.3926 24.2595 31.5366 21.6969 28.9126 20.655C29.9008 22.447 30.464 24.5078 30.464 26.6966V28.9955ZM8.23168 29.4396C10.5562 29.4396 25.8701 29.4396 27.721 29.4396C27.7798 29.4179 27.8413 29.4013 27.904 29.3885V26.6966C27.904 21.1875 23.4304 16.7139 17.92 16.7139C12.4096 16.7139 7.936 21.1875 7.936 26.6966V29.3705C8.03968 29.382 8.13824 29.4051 8.23168 29.4396Z" fill="white"/>
</g>
<defs>
<clipPath id="clip0_1934_2559">
<rect width="37.12" height="32" fill="white"/>
</clipPath>
</defs>
</svg>
