<svg width="24" height="16" viewBox="0 0 24 16" fill="none" xmlns="http://www.w3.org/2000/svg">
<g clip-path="url(#clip0_1691_1784)">
<path d="M1.80451 0C1.10384 0 0.515625 0.608507 0.515625 1.33333V14.6667C0.515625 15.3915 1.10384 16 1.80451 16H21.3956C22.0963 16 22.6845 15.3915 22.6845 14.6667V1.33333C22.6845 0.608507 22.0963 0 21.3956 0H1.80451ZM2.96451 1.6H20.2356L11.8417 9.77498C11.7515 9.86296 11.4487 9.86296 11.3584 9.77498L2.96451 1.6ZM2.06229 2.91667L7.45146 8.16667L2.06229 13.3584V2.91667ZM21.1378 2.91667V13.3584L15.7487 8.16667L21.1378 2.91667ZM8.57924 9.26667L10.2951 10.9417C11.0338 11.6618 12.1663 11.6618 12.9051 10.9417L14.6209 9.26667L19.9537 14.4H3.24646L8.57924 9.26667Z" fill="#FF764A"/>
</g>
<defs>
<clipPath id="clip0_1691_1784">
<rect width="23.2" height="16" fill="white"/>
</clipPath>
</defs>
</svg>
